<?xml version="1.0" encoding="UTF-8" standalone="no"?>
<!-- Created with Inkscape (http://www.inkscape.org/) -->

<svg
   version="1.1"
   id="svg1"
   width="141.46001"
   height="168.53333"
   viewBox="0 0 141.46001 168.53333"
   xmlns="http://www.w3.org/2000/svg"
   xmlns:svg="http://www.w3.org/2000/svg">
  <defs
     id="defs1" />
  <g
     id="g1">
    <path
       id="path1"
       d="M -28.47935,-34.79906 V -50.16327"
       style="fill:none;stroke:#000000;stroke-width:0.3985;stroke-linecap:butt;stroke-linejoin:miter;stroke-miterlimit:10;stroke-dasharray:none;stroke-opacity:1"
       transform="matrix(1.3333333,0,0,-1.3333333,76.914667,8.6026667)" />
    <path
       id="path2"
       d="m -51.1568,-91.53207 v -15.32482"
       style="fill:none;stroke:#000000;stroke-width:0.3985;stroke-linecap:butt;stroke-linejoin:miter;stroke-miterlimit:10;stroke-dasharray:none;stroke-opacity:1"
       transform="matrix(1.3333333,0,0,-1.3333333,76.914667,8.6026667)" />
    <path
       id="path3"
       d="M -9.88153,-90.13995 -24.37967,-108.2626"
       style="fill:none;stroke:#000000;stroke-width:0.3985;stroke-linecap:butt;stroke-linejoin:miter;stroke-miterlimit:10;stroke-dasharray:none;stroke-opacity:1"
       transform="matrix(1.3333333,0,0,-1.3333333,76.914667,8.6026667)" />
    <path
       id="path4"
       d="m -5.80191,-91.57076 v -15.28613"
       style="fill:none;stroke:#000000;stroke-width:0.3985;stroke-linecap:butt;stroke-linejoin:miter;stroke-miterlimit:10;stroke-dasharray:none;stroke-opacity:1"
       transform="matrix(1.3333333,0,0,-1.3333333,76.914667,8.6026667)" />
    <path
       id="path5"
       d="M -1.72227,-90.13995 12.7959,-108.28769"
       style="fill:none;stroke:#000000;stroke-width:0.3985;stroke-linecap:butt;stroke-linejoin:miter;stroke-miterlimit:10;stroke-dasharray:none;stroke-opacity:1"
       transform="matrix(1.3333333,0,0,-1.3333333,76.914667,8.6026667)" />
    <path
       id="path6"
       d="M -32.55898,-61.79315 -47.10132,-79.97107"
       style="fill:none;stroke:#000000;stroke-width:0.3985;stroke-linecap:butt;stroke-linejoin:miter;stroke-miterlimit:10;stroke-dasharray:none;stroke-opacity:1"
       transform="matrix(1.3333333,0,0,-1.3333333,76.914667,8.6026667)" />
    <path
       id="path7"
       d="M -24.39972,-61.79315 -9.88153,-79.94087"
       style="fill:none;stroke:#000000;stroke-width:0.3985;stroke-linecap:butt;stroke-linejoin:miter;stroke-miterlimit:10;stroke-dasharray:none;stroke-opacity:1"
       transform="matrix(1.3333333,0,0,-1.3333333,76.914667,8.6026667)" />
    <path
       id="path8"
       d="M 28.47935,-36.67242 V -48.44678"
       style="fill:none;stroke:#000000;stroke-width:0.3985;stroke-linecap:butt;stroke-linejoin:miter;stroke-miterlimit:10;stroke-dasharray:none;stroke-opacity:1"
       transform="matrix(1.3333333,0,0,-1.3333333,76.914667,8.6026667)" />
    <path
       id="path9"
       d="M 25.35432,-64.32768 20.00055,-77.40634"
       style="fill:none;stroke:#000000;stroke-width:0.3985;stroke-linecap:butt;stroke-linejoin:miter;stroke-miterlimit:10;stroke-dasharray:none;stroke-opacity:1"
       transform="matrix(1.3333333,0,0,-1.3333333,76.914667,8.6026667)" />
    <path
       id="path10"
       d="m 31.60437,-64.32768 5.32391,-13.00571"
       style="fill:none;stroke:#000000;stroke-width:0.3985;stroke-linecap:butt;stroke-linejoin:miter;stroke-miterlimit:10;stroke-dasharray:none;stroke-opacity:1"
       transform="matrix(1.3333333,0,0,-1.3333333,76.914667,8.6026667)" />
    <path
       id="path11"
       d="M -4.57307,-4.5518 -23.90627,-23.795"
       style="fill:none;stroke:#000000;stroke-width:0.3985;stroke-linecap:butt;stroke-linejoin:miter;stroke-miterlimit:10;stroke-dasharray:none;stroke-opacity:1"
       transform="matrix(1.3333333,0,0,-1.3333333,76.914667,8.6026667)" />
    <path
       id="path12"
       d="M 4.57307,-4.5518 22.57849,-22.4734"
       style="fill:none;stroke:#000000;stroke-width:0.3985;stroke-linecap:butt;stroke-linejoin:miter;stroke-miterlimit:10;stroke-dasharray:none;stroke-opacity:1"
       transform="matrix(1.3333333,0,0,-1.3333333,76.914667,8.6026667)" />
    <path
       id="path13"
       d="M 6.25299,0 C 6.25299,3.45348 3.45348,6.25299 0,6.25299 -3.45348,6.25299 -6.25299,3.45348 -6.25299,0 c 0,-3.45348 2.79951,-6.25299 6.25299,-6.25299 3.45348,0 6.25299,2.79951 6.25299,6.25299 z"
       style="fill:none;stroke:#000000;stroke-width:0.3985;stroke-linecap:butt;stroke-linejoin:miter;stroke-miterlimit:10;stroke-dasharray:none;stroke-opacity:1"
       transform="matrix(1.3333333,0,0,-1.3333333,76.914667,8.6026667)" />
    <path
       id="path14"
       d="m 4.1711875,-0.00142187 v -0.3046875 H 3.8547813 C 2.9524375,-0.30610937 2.929,-0.42329687 2.929,-0.78657812 V -6.3764219 c 0,-0.234375 0,-0.2578125 -0.234375,-0.2578125 -0.609375,0.6328125 -1.4882812,0.6328125 -1.8046875,0.6328125 v 0.3164063 c 0.1992188,0 0.7851563,0 1.3007813,-0.2578125 v 5.15624998 c 0,0.3515625 -0.035156,0.48046875 -0.9257813,0.48046875 H 0.94853125 v 0.3046875 C 1.3000938,-0.03657812 2.1555625,-0.03657812 2.554,-0.03657812 c 0.3984375,0 1.265625,0 1.6171875,0.03515625 z m 0,0"
       style="fill:#000000;fill-opacity:1;fill-rule:nonzero;stroke:none"
       aria-label="1"
       transform="matrix(1.3333333,0,0,1.3333333,73.594667,13.025333)" />
    <path
       id="path15"
       d="M 6.25299,0 C 6.25299,3.45348 3.45348,6.25299 0,6.25299 -3.45348,6.25299 -6.25299,3.45348 -6.25299,0 c 0,-3.45348 2.79951,-6.25299 6.25299,-6.25299 3.45348,0 6.25299,2.79951 6.25299,6.25299 z"
       style="fill:none;stroke:#000000;stroke-width:0.3985;stroke-linecap:butt;stroke-linejoin:miter;stroke-miterlimit:10;stroke-dasharray:none;stroke-opacity:1"
       transform="matrix(1.3333333,0,0,-1.3333333,38.942667,46.397333)" />
    <path
       id="path16"
       d="M 4.4753828,-1.7351406 H 4.2175703 c -0.046875,0.3046875 -0.1171875,0.73828123 -0.2109375,0.89062498 -0.070312,0.0820313 -0.7265625,0.0820313 -0.9492187,0.0820313 H 1.2644453 L 2.3191328,-1.7937344 c 1.5585938,-1.3710937 2.15625,-1.9101562 2.15625,-2.90625 0,-1.1367187 -0.9023437,-1.9335937 -2.1210937,-1.9335937 -1.125,0 -1.85156254,0.9140625 -1.85156254,1.8046875 0,0.5507812 0.4921875,0.5507812 0.52734374,0.5507812 0.1640625,0 0.515625,-0.1171875 0.515625,-0.5273437 0,-0.2578125 -0.1875,-0.515625 -0.5273437,-0.515625 -0.0820313,0 -0.10546879,0 -0.12890629,0.011719 0.22265629,-0.6445312 0.76171879,-1.0195312 1.33593749,-1.0195312 0.9140625,0 1.3359375,0.8085937 1.3359375,1.6289062 0,0.796875 -0.4921875,1.5820313 -1.0429687,2.203125 L 0.60819531,-0.36404687 C 0.50272656,-0.25857812 0.50272656,-0.23514062 0.50272656,-7.65625e-4 H 4.1941328 Z m 0,0"
       style="fill:#000000;fill-opacity:1;fill-rule:nonzero;stroke:none"
       aria-label="2"
       transform="matrix(1.3333333,0,0,1.3333333,35.622667,50.821333)" />
    <path
       id="path17"
       d="M 6.33107,0 C 6.33107,3.49658 3.49658,6.33107 0,6.33107 -3.49658,6.33107 -6.33107,3.49658 -6.33107,0 c 0,-3.49658 2.83449,-6.33107 6.33107,-6.33107 3.49658,0 6.33107,2.83449 6.33107,6.33107 z"
       style="fill:none;stroke:#000000;stroke-width:0.3985;stroke-linecap:butt;stroke-linejoin:miter;stroke-miterlimit:10;stroke-dasharray:none;stroke-opacity:1"
       transform="matrix(1.3333333,0,0,-1.3333333,38.942667,84.193333)" />
    <path
       id="path18"
       d="m 4.5456953,-1.7006562 c 0,-0.8203125 -0.6210937,-1.59375 -1.6523437,-1.8046875 C 3.7019453,-3.774875 4.2878828,-4.478 4.2878828,-5.2631562 c 0,-0.8203125 -0.8789062,-1.3710938 -1.8398437,-1.3710938 -1.0078125,0 -1.75781254,0.5976563 -1.75781254,1.3476563 0,0.3398437 0.2109375,0.5273437 0.50390624,0.5273437 0.3046875,0 0.5039063,-0.2226562 0.5039063,-0.515625 0,-0.4921875 -0.46875,-0.4921875 -0.609375,-0.4921875 0.3046875,-0.4921875 0.9609375,-0.6210937 1.3242187,-0.6210937 0.4101563,0 0.9492188,0.2226562 0.9492188,1.1132812 0,0.1289063 -0.011719,0.703125 -0.2695313,1.1367188 -0.3046875,0.4804687 -0.6445312,0.515625 -0.890625,0.515625 -0.082031,0.011719 -0.3164062,0.035156 -0.3867187,0.035156 -0.082031,0.011719 -0.1523438,0.023437 -0.1523438,0.1171875 0,0.1171875 0.070312,0.1171875 0.234375,0.1171875 h 0.4453125 c 0.8085938,0 1.1835938,0.6679688 1.1835938,1.6523438 0,1.3476562 -0.6914063,1.64062495 -1.125,1.64062495 -0.4335938,0 -1.171875,-0.17578125 -1.52343754,-0.76171875 0.35156254,0.0585938 0.65625004,-0.1640625 0.65625004,-0.5390625 0,-0.3632812 -0.2695313,-0.5625 -0.56250004,-0.5625 -0.234375,0 -0.55078125,0.140625 -0.55078125,0.5742188 0,0.91406245 0.92578129,1.57031245 2.00390629,1.57031245 1.21875,0 2.1210937,-0.9140625 2.1210937,-1.92187475 z m 0,0"
       style="fill:#000000;fill-opacity:1;fill-rule:nonzero;stroke:none"
       aria-label="3"
       transform="matrix(1.3333333,0,0,1.3333333,35.622667,88.470667)" />
    <path
       id="path19"
       d="M 6.29239,0 C 6.29239,3.47522 3.47522,6.29239 0,6.29239 -3.47522,6.29239 -6.29239,3.47522 -6.29239,0 c 0,-3.47522 2.81717,-6.29239 6.29239,-6.29239 3.47522,0 6.29239,2.81717 6.29239,6.29239 z"
       style="fill:none;stroke:#000000;stroke-width:0.3985;stroke-linecap:butt;stroke-linejoin:miter;stroke-miterlimit:10;stroke-dasharray:none;stroke-opacity:1"
       transform="matrix(1.3333333,0,0,-1.3333333,8.7066667,121.988)" />
    <path
       id="path20"
       d="M 4.6875391,-1.6413438 V -1.95775 H 3.6914453 v -4.5234375 c 0,-0.1992188 0,-0.2578125 -0.1523437,-0.2578125 -0.09375,0 -0.1171875,0 -0.1992188,0.1171875 L 0.28128906,-1.95775 v 0.3164062 H 2.9297266 v 0.86718755 c 0,0.3515625 -0.023437,0.46875 -0.7617188,0.46875 H 1.9570703 v 0.3046875 C 2.3672266,-0.035875 2.8945703,-0.035875 3.3047266,-0.035875 c 0.421875,0 0.9492187,0 1.359375,0.03515625 v -0.3046875 H 4.4531641 c -0.7382813,0 -0.7617188,-0.1171875 -0.7617188,-0.46875 V -1.6413438 Z M 2.9883203,-1.95775 H 0.56253906 L 2.9883203,-5.6725938 Z m 0,0"
       style="fill:#000000;fill-opacity:1;fill-rule:nonzero;stroke:none"
       aria-label="4"
       transform="matrix(1.3333333,0,0,1.3333333,5.3866667,126.48533)" />
    <path
       id="path21"
       d="M 6.33107,0 C 6.33107,3.49658 3.49658,6.33107 0,6.33107 -3.49658,6.33107 -6.33107,3.49658 -6.33107,0 c 0,-3.49658 2.83449,-6.33107 6.33107,-6.33107 3.49658,0 6.33107,2.83449 6.33107,6.33107 z"
       style="fill:none;stroke:#000000;stroke-width:0.3985;stroke-linecap:butt;stroke-linejoin:miter;stroke-miterlimit:10;stroke-dasharray:none;stroke-opacity:1"
       transform="matrix(1.3333333,0,0,-1.3333333,8.7066667,159.784)" />
    <path
       id="path22"
       d="m 4.4766016,-2.0030312 c 0,-1.1835938 -0.8203125,-2.1796875 -1.8984375,-2.1796875 -0.4804688,0 -0.9023438,0.1640625 -1.265625,0.5039062 v -1.9335937 c 0.1992187,0.058594 0.5273437,0.1289062 0.84375,0.1289062 1.2304687,0 1.9335937,-0.9140625 1.9335937,-1.0429687 0,-0.058594 -0.035156,-0.1054688 -0.1054687,-0.1054688 0,0 -0.035156,0 -0.082031,0.023437 -0.1992187,0.09375 -0.6796875,0.2929688 -1.3476562,0.2929688 -0.3984375,0 -0.8554688,-0.070312 -1.3242188,-0.28125 -0.082031,-0.023437 -0.1289062,-0.023437 -0.1289062,-0.023437 -0.09375,0 -0.09375,0.082031 -0.09375,0.234375 v 2.953125 c 0,0.1757812 0,0.2578125 0.140625,0.2578125 0.070312,0 0.082031,-0.035156 0.1289062,-0.09375 0.1054688,-0.1523438 0.4804688,-0.6914063 1.2773438,-0.6914063 0.5273437,0 0.7734375,0.4570313 0.8554687,0.6328125 0.1523438,0.375 0.1757813,0.7617188 0.1757813,1.2539063 0,0.3515625 0,0.9492187 -0.234375,1.3710937 -0.2460938,0.38671875 -0.609375,0.64453125 -1.0664063,0.64453125 -0.7265625,0 -1.30078124,-0.52734375 -1.46484374,-1.11328125 0.0234375,0.011719 0.0585938,0.011719 0.1640625,0.011719 0.32812504,0 0.50390624,-0.2460938 0.50390624,-0.4804688 0,-0.2460937 -0.1757812,-0.4921875 -0.50390624,-0.4921875 -0.140625,0 -0.48046875,0.070312 -0.48046875,0.5273438 0,0.8554687 0.67968749,1.82812495 1.79296879,1.82812495 1.1601562,0 2.1796875,-0.9609375 2.1796872,-2.22656265 z m 0,0"
       style="fill:#000000;fill-opacity:1;fill-rule:nonzero;stroke:none"
       aria-label="5"
       transform="matrix(1.3333333,0,0,1.3333333,5.3866667,164.06133)" />
    <path
       id="path23"
       d="M 6.33107,0 C 6.33107,3.49658 3.49658,6.33107 0,6.33107 -3.49658,6.33107 -6.33107,3.49658 -6.33107,0 c 0,-3.49658 2.83449,-6.33107 6.33107,-6.33107 3.49658,0 6.33107,2.83449 6.33107,6.33107 z"
       style="fill:none;stroke:#000000;stroke-width:0.3985;stroke-linecap:butt;stroke-linejoin:miter;stroke-miterlimit:10;stroke-dasharray:none;stroke-opacity:1"
       transform="matrix(1.3333333,0,0,-1.3333333,69.18,121.988)" />
    <path
       id="path24"
       d="m 4.5474063,-2.027125 c 0,-1.265625 -0.8789063,-2.2265625 -1.9921875,-2.2265625 -0.6679688,0 -1.0429688,0.5039063 -1.2421875,0.984375 v -0.234375 c 0,-2.5195312 1.2421875,-2.8828125 1.7460937,-2.8828125 0.234375,0 0.65625,0.058594 0.8789063,0.3984375 -0.1523438,0 -0.5507813,0 -0.5507813,0.4453125 0,0.3164063 0.234375,0.4570313 0.4570313,0.4570313 0.1640625,0 0.4570312,-0.082031 0.4570312,-0.46875 0,-0.5976563 -0.4335937,-1.078125 -1.265625,-1.078125 -1.2773437,0 -2.61328125,1.2890625 -2.61328125,3.4804687 0,2.66015625 1.14843755,3.375 2.07421875,3.375 1.1132813,0 2.0507813,-0.9375 2.0507813,-2.25 z m -0.890625,-0.011719 c 0,0.4804687 0,0.9726562 -0.1640625,1.33593745 C 3.1880313,-0.10525 2.731,-0.058375 2.496625,-0.058375 c -0.6210937,0 -0.9257812,-0.59765625 -0.984375,-0.75 C 1.3364688,-1.277125 1.3364688,-2.074 1.3364688,-2.2497812 c 0,-0.7734375 0.3164062,-1.7695313 1.21875,-1.7695313 0.1523437,0 0.609375,0 0.9257812,0.609375 0.1757813,0.375 0.1757813,0.8789063 0.1757813,1.3710935 z m 0,0"
       style="fill:#000000;fill-opacity:1;fill-rule:nonzero;stroke:none"
       aria-label="6"
       transform="matrix(1.3333333,0,0,1.3333333,65.858667,126.26533)" />
    <path
       id="path25"
       d="M 6.36317,0 C 6.36317,3.51433 3.51433,6.36317 0,6.36317 -3.51433,6.36317 -6.36317,3.51433 -6.36317,0 c 0,-3.51433 2.84884,-6.36317 6.36317,-6.36317 3.51433,0 6.36317,2.84884 6.36317,6.36317 z"
       style="fill:none;stroke:#000000;stroke-width:0.3985;stroke-linecap:butt;stroke-linejoin:miter;stroke-miterlimit:10;stroke-dasharray:none;stroke-opacity:1"
       transform="matrix(1.3333333,0,0,-1.3333333,38.942667,159.784)" />
    <path
       id="path26"
       d="M 4.8269453,-6.4114062 H 2.4128828 c -1.21875,0 -1.2421875,-0.1289063 -1.2773437,-0.328125 H 0.88944531 l -0.328125,2.0507812 h 0.24609375 c 0.0234375,-0.1523437 0.1171875,-0.7851562 0.24609374,-0.9023437 0.070312,-0.058594 0.84375,-0.058594 0.9726563,-0.058594 h 2.0625 L 2.9753828,-4.079375 c -0.890625,1.3476563 -1.21875,2.7304688 -1.21875,3.75 0,0.09375 0,0.55078125 0.4570313,0.55078125 0.4570312,0 0.4570312,-0.45703125 0.4570312,-0.55078125 v -0.50390625 c 0,-0.55078125 0.023437,-1.10156245 0.1054688,-1.64062495 0.046875,-0.2226563 0.1757812,-1.078125 0.6210937,-1.6992188 l 1.3476563,-1.8984375 c 0.082031,-0.1171875 0.082031,-0.140625 0.082031,-0.3398437 z m 0,0"
       style="fill:#000000;fill-opacity:1;fill-rule:nonzero;stroke:none"
       aria-label="7"
       transform="matrix(1.3333333,0,0,1.3333333,35.622667,164.12667)" />
    <path
       id="path27"
       d="M 6.33107,0 C 6.33107,3.49658 3.49658,6.33107 0,6.33107 -3.49658,6.33107 -6.33107,3.49658 -6.33107,0 c 0,-3.49658 2.83449,-6.33107 6.33107,-6.33107 3.49658,0 6.33107,2.83449 6.33107,6.33107 z"
       style="fill:none;stroke:#000000;stroke-width:0.3985;stroke-linecap:butt;stroke-linejoin:miter;stroke-miterlimit:10;stroke-dasharray:none;stroke-opacity:1"
       transform="matrix(1.3333333,0,0,-1.3333333,69.18,159.784)" />
    <path
       id="path28"
       d="m 4.5474063,-1.6749062 c 0,-0.3515625 -0.1054688,-0.8085938 -0.4804688,-1.21875 -0.1875,-0.2109375 -0.3515625,-0.3164063 -0.984375,-0.7148438 0.7148438,-0.3632812 1.2070313,-0.8789062 1.2070313,-1.5351562 0,-0.9257813 -0.890625,-1.4882813 -1.7929688,-1.4882813 -0.9960937,0 -1.8046875,0.7382813 -1.8046875,1.6640625 0,0.1757813 0.0117188,0.6210938 0.4335938,1.0898438 C 1.231,-3.749125 1.606,-3.5030312 1.8520938,-3.3389687 1.277875,-3.046 0.42240625,-2.4952187 0.42240625,-1.499125 c 0,1.0546875 1.00781255,1.72265625 2.06250005,1.72265625 1.125,0 2.0625,-0.83203125 2.0625,-1.89843745 z m -0.703125,-3.46875 c 0,0.5625 -0.3867188,1.0429687 -0.984375,1.3945312 L 1.6294375,-4.546 c -0.46875,-0.3046875 -0.5039062,-0.6445312 -0.5039062,-0.8085937 0,-0.609375 0.6445312,-1.03125 1.359375,-1.03125 0.7265625,0 1.359375,0.515625 1.359375,1.2421875 z m 0.2109375,3.8320312 c 0,0.73828125 -0.75,1.25390625 -1.5585938,1.25390625 -0.8671875,0 -1.58203125,-0.62109375 -1.58203125,-1.44140625 0,-0.5859375 0.31640625,-1.21875 1.17187505,-1.6875 l 1.21875,0.7734375 c 0.28125,0.1875 0.75,0.4921875 0.75,1.1015625 z m 0,0"
       style="fill:#000000;fill-opacity:1;fill-rule:nonzero;stroke:none"
       aria-label="8"
       transform="matrix(1.3333333,0,0,1.3333333,65.858667,164.06133)" />
    <path
       id="path29"
       d="M 6.33107,0 C 6.33107,3.49658 3.49658,6.33107 0,6.33107 -3.49658,6.33107 -6.33107,3.49658 -6.33107,0 c 0,-3.49658 2.83449,-6.33107 6.33107,-6.33107 3.49658,0 6.33107,2.83449 6.33107,6.33107 z"
       style="fill:none;stroke:#000000;stroke-width:0.3985;stroke-linecap:butt;stroke-linejoin:miter;stroke-miterlimit:10;stroke-dasharray:none;stroke-opacity:1"
       transform="matrix(1.3333333,0,0,-1.3333333,99.416,159.784)" />
    <path
       id="path30"
       d="m 4.5461875,-3.280375 c 0,-2.671875 -1.1367187,-3.3515625 -2.0273437,-3.3515625 -0.5507813,0 -1.03125,0.1757813 -1.4648438,0.6210938 -0.41015625,0.4570312 -0.6328125,0.8671875 -0.6328125,1.6171875 0,1.2421875 0.8789063,2.2265625 1.9921875,2.2265625 0.609375,0 1.0078125,-0.421875 1.2421875,-0.9960938 v 0.3164063 c 0,2.3320312 -1.03125,2.78906245 -1.6171875,2.78906245 -0.1640625,0 -0.703125,-0.0234375 -0.9726562,-0.36328125 0.4335937,0 0.515625,-0.28125 0.515625,-0.45703125 0,-0.30468745 -0.234375,-0.45703125 -0.4570313,-0.45703125 -0.1640625,0 -0.45703125,0.09375 -0.45703125,0.48046875 0,0.66796875 0.53906255,1.078125 1.38281255,1.078125 1.2890625,0 2.4960937,-1.35937495 2.4960937,-3.50390625 z M 3.632125,-4.1944375 c 0,0.8320313 -0.3398437,1.7929688 -1.2070312,1.7929688 -0.1640625,0 -0.6210938,0 -0.9257813,-0.6210938 -0.1875,-0.375 -0.1875,-0.8671875 -0.1875,-1.359375 0,-0.5390625 0,-1.0078125 0.2109375,-1.3710937 0.2695313,-0.5039063 0.6445313,-0.6328125 0.9960938,-0.6328125 0.4570312,0 0.7851562,0.3398437 0.9609375,0.7851562 0.1171875,0.3164063 0.1523437,0.9492188 0.1523437,1.40625 z m 0,0"
       style="fill:#000000;fill-opacity:1;fill-rule:nonzero;stroke:none"
       aria-label="9"
       transform="matrix(1.3333333,0,0,1.3333333,96.094667,164.06133)" />
    <path
       id="path31"
       d="M 8.12636,0 C 8.12636,4.48811 4.48811,8.12636 0,8.12636 -4.48811,8.12636 -8.12636,4.48811 -8.12636,0 c 0,-4.48811 3.63825,-8.12636 8.12636,-8.12636 4.48811,0 8.12636,3.63825 8.12636,8.12636 z"
       style="fill:none;stroke:#000000;stroke-width:0.3985;stroke-linecap:butt;stroke-linejoin:miter;stroke-miterlimit:10;stroke-dasharray:none;stroke-opacity:1"
       transform="matrix(1.3333333,0,0,-1.3333333,114.88667,46.397333)" />
    <path
       id="path32"
       d="M 4.1724453,8.359375e-4 V -0.30385156 H 3.8560391 c -0.9023438,0 -0.9257813,-0.1171875 -0.9257813,-0.48046875 V -6.3741641 c 0,-0.234375 0,-0.2578125 -0.234375,-0.2578125 -0.609375,0.6328125 -1.4882812,0.6328125 -1.80468749,0.6328125 v 0.3164063 c 0.19921879,0 0.78515629,0 1.30078129,-0.2578125 v 5.15624999 c 0,0.3515625 -0.035156,0.48046875 -0.9257813,0.48046875 H 0.94978906 V 8.359375e-4 C 1.3013516,-0.03432031 2.1568203,-0.03432031 2.5552578,-0.03432031 c 0.3984375,0 1.265625,0 1.6171875,0.0351562475 z M 9.5630703,-3.1866641 c 0,-0.796875 -0.046875,-1.59375 -0.3984375,-2.3320312 -0.4570312,-0.9609375 -1.2773437,-1.1132813 -1.6875,-1.1132813 -0.5976562,0 -1.3359375,0.2578125 -1.734375,1.1835938 -0.328125,0.6914062 -0.375,1.4648437 -0.375,2.2617187 0,0.75 0.046875,1.640625 0.4453125,2.40234379 0.4335938,0.80859375 1.1601563,1.0078125 1.6523438,1.0078125 0.5390625,0 1.2890625,-0.2109375 1.734375,-1.16015625 C 9.5161953,-1.6280703 9.5630703,-2.4015078 9.5630703,-3.1866641 Z M 8.7310391,-3.3038516 c 0,0.75 0,1.4179688 -0.1054688,2.0625 -0.1523437,0.93750004 -0.7148437,1.2421875375 -1.1601562,1.2421875375 -0.3867188,0 -0.984375,-0.2460937475 -1.1601563,-1.2070312375 -0.1054687,-0.5976563 -0.1054687,-1.5117188 -0.1054687,-2.0976563 0,-0.6445312 0,-1.3007812 0.082031,-1.8398437 0.1875,-1.1835938 0.9257813,-1.265625 1.1835938,-1.265625 0.328125,0 0.984375,0.1757812 1.171875,1.1601562 0.09375,0.5625 0.09375,1.3125 0.09375,1.9453125 z m 0,0"
       style="fill:#000000;fill-opacity:1;fill-rule:nonzero;stroke:none"
       aria-label="10"
       transform="matrix(1.3333333,0,0,1.3333333,108.24533,50.674667)" />
    <path
       id="path33"
       d="M 8.04756,0 C 8.04756,4.4446 4.4446,8.04756 0,8.04756 -4.4446,8.04756 -8.04756,4.4446 -8.04756,0 c 0,-4.4446 3.60296,-8.04756 8.04756,-8.04756 4.4446,0 8.04756,3.60296 8.04756,8.04756 z"
       style="fill:none;stroke:#000000;stroke-width:0.3985;stroke-linecap:butt;stroke-linejoin:miter;stroke-miterlimit:10;stroke-dasharray:none;stroke-opacity:1"
       transform="matrix(1.3333333,0,0,-1.3333333,114.88667,84.193333)" />
    <path
       id="path34"
       d="M 4.1724453,8.90625e-4 V -0.30379688 H 3.8560391 c -0.9023438,0 -0.9257813,-0.1171875 -0.9257813,-0.48046875 V -6.3741094 c 0,-0.234375 0,-0.2578125 -0.234375,-0.2578125 -0.609375,0.6328125 -1.4882812,0.6328125 -1.80468749,0.6328125 v 0.3164063 c 0.19921879,0 0.78515629,0 1.30078129,-0.2578125 v 5.15624997 c 0,0.3515625 -0.035156,0.48046875 -0.9257813,0.48046875 H 0.94978906 V 8.90625e-4 C 1.3013516,-0.03426563 2.1568203,-0.03426563 2.5552578,-0.03426563 c 0.3984375,0 1.265625,0 1.6171875,0.035156255 z m 4.9804688,0 V -0.30379688 H 8.8365078 c -0.9023437,0 -0.9257812,-0.1171875 -0.9257812,-0.48046875 V -6.3741094 c 0,-0.234375 0,-0.2578125 -0.234375,-0.2578125 -0.609375,0.6328125 -1.4882813,0.6328125 -1.8046875,0.6328125 v 0.3164063 c 0.1992187,0 0.7851562,0 1.3007812,-0.2578125 v 5.15624997 c 0,0.3515625 -0.035156,0.48046875 -0.9257812,0.48046875 H 5.9302578 V 8.90625e-4 C 6.2818203,-0.03426563 7.1372891,-0.03426563 7.5357266,-0.03426563 c 0.3984375,0 1.265625,0 1.6171875,0.035156255 z m 0,0"
       style="fill:#000000;fill-opacity:1;fill-rule:nonzero;stroke:none"
       aria-label="11"
       transform="matrix(1.3333333,0,0,1.3333333,108.24533,88.616)" />
    <path
       id="path35"
       d="M 8.04756,0 C 8.04756,4.4446 4.4446,8.04756 0,8.04756 -4.4446,8.04756 -8.04756,4.4446 -8.04756,0 c 0,-4.4446 3.60296,-8.04756 8.04756,-8.04756 4.4446,0 8.04756,3.60296 8.04756,8.04756 z"
       style="fill:none;stroke:#000000;stroke-width:0.3985;stroke-linecap:butt;stroke-linejoin:miter;stroke-miterlimit:10;stroke-dasharray:none;stroke-opacity:1"
       transform="matrix(1.3333333,0,0,-1.3333333,99.416,121.988)" />
    <path
       id="path36"
       d="m 4.1719531,-0.00138281 v -0.3046875 H 3.8555469 c -0.9023438,0 -0.9257813,-0.1171875 -0.9257813,-0.48046875 V -6.3763828 c 0,-0.234375 0,-0.2578125 -0.234375,-0.2578125 -0.609375,0.6328125 -1.4882812,0.6328125 -1.80468747,0.6328125 v 0.3164062 c 0.19921877,0 0.78515627,0 1.30078127,-0.2578125 v 5.15625004 c 0,0.3515625 -0.035156,0.48046875 -0.9257813,0.48046875 H 0.94929688 v 0.3046875 C 1.3008594,-0.03653906 2.1563281,-0.03653906 2.5547656,-0.03653906 c 0.3984375,0 1.265625,0 1.6171875,0.03515625 z M 9.4571094,-1.7357578 H 9.1992969 c -0.046875,0.3046875 -0.1171875,0.73828124 -0.2109375,0.89062499 -0.070312,0.0820313 -0.7265625,0.0820313 -0.9492188,0.0820313 H 6.2461719 L 7.3008594,-1.7943516 c 1.5585937,-1.3710937 2.15625,-1.9101562 2.15625,-2.90625 0,-1.1367187 -0.9023438,-1.9335937 -2.1210938,-1.9335937 -1.125,0 -1.8515625,0.9140625 -1.8515625,1.8046875 0,0.5507812 0.4921875,0.5507812 0.5273438,0.5507812 0.1640625,0 0.515625,-0.1171875 0.515625,-0.5273437 0,-0.2578125 -0.1875,-0.515625 -0.5273438,-0.515625 -0.082031,0 -0.1054687,0 -0.1289062,0.011719 0.2226562,-0.6445312 0.7617187,-1.0195312 1.3359375,-1.0195312 0.9140625,0 1.3359375,0.8085937 1.3359375,1.6289062 0,0.796875 -0.4921875,1.5820313 -1.0429688,2.203125 l -1.9101562,2.13281254 c -0.1054688,0.10546875 -0.1054688,0.12890625 -0.1054688,0.36328125 h 3.6914063 z m 0,0"
       style="fill:#000000;fill-opacity:1;fill-rule:nonzero;stroke:none"
       aria-label="12"
       transform="matrix(1.3333333,0,0,1.3333333,92.773333,126.412)" />
    <path
       id="path37"
       d="M 8.12636,0 C 8.12636,4.48811 4.48811,8.12636 0,8.12636 -4.48811,8.12636 -8.12636,4.48811 -8.12636,0 c 0,-4.48811 3.63825,-8.12636 8.12636,-8.12636 4.48811,0 8.12636,3.63825 8.12636,8.12636 z"
       style="fill:none;stroke:#000000;stroke-width:0.3985;stroke-linecap:butt;stroke-linejoin:miter;stroke-miterlimit:10;stroke-dasharray:none;stroke-opacity:1"
       transform="matrix(1.3333333,0,0,-1.3333333,130.35867,121.988)" />
    <path
       id="path38"
       d="m 4.1729375,2.1875e-4 v -0.3046875 H 3.8565313 c -0.9023438,0 -0.9257813,-0.1171875 -0.9257813,-0.48046875 v -5.5898437 c 0,-0.234375 0,-0.2578125 -0.234375,-0.2578125 C 2.087,-5.9997812 1.2080938,-5.9997812 0.8916875,-5.9997812 v 0.3164062 c 0.1992188,0 0.7851563,0 1.3007813,-0.2578125 v 5.15625 c 0,0.3515625 -0.035156,0.48046875 -0.9257813,0.48046875 H 0.95028125 V 2.1875e-4 C 1.3018438,-0.0349375 2.1573125,-0.0349375 2.55575,-0.0349375 c 0.3984375,0 1.265625,0 1.6171875,0.03515625 z M 9.5284063,-1.699 c 0,-0.8203125 -0.6210938,-1.59375 -1.6523438,-1.8046875 0.8085938,-0.2695312 1.3945313,-0.9726562 1.3945313,-1.7578125 0,-0.8203125 -0.8789063,-1.3710937 -1.8398438,-1.3710937 -1.0078125,0 -1.7578125,0.5976562 -1.7578125,1.3476562 0,0.3398438 0.2109375,0.5273438 0.5039063,0.5273438 0.3046875,0 0.5039062,-0.2226563 0.5039062,-0.515625 0,-0.4921875 -0.46875,-0.4921875 -0.609375,-0.4921875 C 6.3760625,-6.2575937 7.0323125,-6.3865 7.3955938,-6.3865 c 0.4101562,0 0.9492187,0.2226563 0.9492187,1.1132813 0,0.1289062 -0.011719,0.703125 -0.2695312,1.1367187 -0.3046875,0.4804688 -0.6445313,0.515625 -0.890625,0.515625 -0.082031,0.011719 -0.3164063,0.035156 -0.3867188,0.035156 -0.082031,0.011719 -0.1523437,0.023437 -0.1523437,0.1171875 0,0.1171875 0.070312,0.1171875 0.234375,0.1171875 h 0.4453125 c 0.8085937,0 1.1835937,0.6679687 1.1835937,1.6523437 0,1.34765625 -0.6914062,1.640625 -1.125,1.640625 -0.4335937,0 -1.171875,-0.17578125 -1.5234375,-0.76171875 0.3515625,0.0585938 0.65625,-0.1640625 0.65625,-0.53906245 0,-0.3632813 -0.2695312,-0.5625 -0.5625,-0.5625 -0.234375,0 -0.5507812,0.140625 -0.5507812,0.5742187 0,0.9140625 0.9257812,1.5703125 2.0039062,1.5703125 1.21875,0 2.1210938,-0.9140625 2.1210938,-1.9218747 z m 0,0"
       style="fill:#000000;fill-opacity:1;fill-rule:nonzero;stroke:none"
       aria-label="13"
       transform="matrix(1.3333333,0,0,1.3333333,123.71733,126.26533)" />
  </g>
</svg>
